<svg width="44" height="43" viewBox="0 0 44 43" fill="none" xmlns="http://www.w3.org/2000/svg">
<path fill-rule="evenodd" clip-rule="evenodd" d="M37.0717 24.3245C37.711 24.6641 38.2042 25.2004 38.5513 25.7366C39.2272 26.8449 39.1724 28.2034 38.5148 29.401L37.2361 31.546C36.5602 32.69 35.2998 33.405 34.0029 33.405C33.3635 33.405 32.6511 33.2262 32.0666 32.8687C31.5916 32.5649 31.0436 32.4576 30.4591 32.4576C28.6507 32.4576 27.1345 33.9412 27.0797 35.7109C27.0797 37.7665 25.3992 39.3752 23.2985 39.3752H20.8142C18.6952 39.3752 17.0147 37.7665 17.0147 35.7109C16.9781 33.9412 15.462 32.4576 13.6536 32.4576C13.0508 32.4576 12.5027 32.5649 12.0461 32.8687C11.4615 33.2262 10.7309 33.405 10.1098 33.405C8.79457 33.405 7.53416 32.69 6.85828 31.546L5.59787 29.401C4.922 28.2391 4.88546 26.8449 5.56134 25.7366C5.85361 25.2004 6.40161 24.6641 7.02269 24.3245C7.53416 24.0742 7.86296 23.6631 8.1735 23.1805C9.08684 21.6432 8.53884 19.6234 6.98615 18.7117C5.17773 17.6929 4.59319 15.4227 5.6344 13.6531L6.85828 11.5439C7.91776 9.77424 10.1829 9.14862 12.0095 10.1854C13.5988 11.0434 15.6629 10.4714 16.5945 8.95199C16.8868 8.45149 17.0512 7.91524 17.0147 7.37899C16.9781 6.68187 17.1791 6.02049 17.5261 5.48424C18.202 4.37599 19.4259 3.66099 20.7594 3.62524H23.335C24.6868 3.62524 25.9106 4.37599 26.5865 5.48424C26.9153 6.02049 27.1345 6.68187 27.0797 7.37899C27.0432 7.91524 27.2076 8.45149 27.4999 8.95199C28.4315 10.4714 30.4956 11.0434 32.1031 10.1854C33.9115 9.14862 36.1949 9.77424 37.2361 11.5439L38.46 13.6531C39.5195 15.4227 38.9349 17.6929 37.1082 18.7117C35.5555 19.6234 35.0075 21.6432 35.9391 23.1805C36.2314 23.6631 36.5602 24.0742 37.0717 24.3245ZM16.8868 21.5181C16.8868 24.3245 19.2067 26.5589 22.0746 26.5589C24.9425 26.5589 27.2076 24.3245 27.2076 21.5181C27.2076 18.7117 24.9425 16.4595 22.0746 16.4595C19.2067 16.4595 16.8868 18.7117 16.8868 21.5181Z" fill="#5C717D"/>
</svg>
